<svg id="d603218f-dd01-40d6-8a3a-41708db8c7e5" data-name="图层 1" xmlns="http://www.w3.org/2000/svg" viewBox="0 0 346.06 76.95"><defs><style>.deae24de-a7fa-4d9b-9538-d7cc014d5e2e{fill:#fff;}</style></defs><title>logo</title><path class="deae24de-a7fa-4d9b-9538-d7cc014d5e2e" d="M174.65,466a38.13,38.13,0,0,1-16.72-3.82,4,4,0,1,1,3.48-7.2,30.19,30.19,0,0,0,13.24,3,30.47,30.47,0,1,0-30.47-30.47,30.82,30.82,0,0,0,.49,5.5,30.33,30.33,0,0,0,1.38,5.06,4,4,0,0,1-7.5,2.77,38.38,38.38,0,0,1-1.75-6.4A38.48,38.48,0,1,1,174.65,466Z" transform="translate(-136.18 -389.05)"/><path class="deae24de-a7fa-4d9b-9538-d7cc014d5e2e" d="M174.39,451.25q-0.9,0-1.81-.07a23.36,23.36,0,1,1,3.55-46.59,4,4,0,0,1-.61,8A15.37,15.37,0,1,0,189.67,429a4,4,0,1,1,8,.61A23.37,23.37,0,0,1,174.39,451.25Z" transform="translate(-136.18 -389.05)"/><path class="deae24de-a7fa-4d9b-9538-d7cc014d5e2e" d="M146.59,459.07a4,4,0,0,1-3.78-5.32,23.54,23.54,0,0,1,14.49-14.42,4,4,0,1,1,2.6,7.57,15.48,15.48,0,0,0-9.53,9.48A4,4,0,0,1,146.59,459.07Z" transform="translate(-136.18 -389.05)"/><path class="deae24de-a7fa-4d9b-9538-d7cc014d5e2e" d="M179.13,426.28a3.44,3.44,0,0,1-3.21-2.36c-0.24-.51-1.35-4.64-1.35-4.64s-1,4.13-1.26,4.64a3.36,3.36,0,0,1-3.16,2.36c-2.48.24-8.68,1-8.68,1s7.7,0.81,9,1.26a4.32,4.32,0,0,1,3,2.66c0.39,1.44,1.08,4.76,1.08,4.76s0.78-3.32,1.17-4.76,1.83-2.21,3.12-2.66,9-1.26,9-1.26S181.62,426.52,179.13,426.28Z" transform="translate(-136.18 -389.05)"/><path class="deae24de-a7fa-4d9b-9538-d7cc014d5e2e" d="M401.38,424c-1.87-.12-2.24-0.9-2.42-1.15s-1-2.26-1-2.26-0.77,2-1,2.26-0.51,1-2.39,1.15-6.55.48-6.55,0.48,5.81,0.39,6.78.61a3.18,3.18,0,0,1,2.29,1.3c0.29,0.7.82,2.32,0.82,2.32s0.59-1.62.88-2.32,1.38-1.08,2.35-1.3,6.77-.61,6.77-0.61S403.26,424.13,401.38,424Z" transform="translate(-136.18 -389.05)"/><path class="deae24de-a7fa-4d9b-9538-d7cc014d5e2e" d="M302.77,454.59v-17.4a0.27,0.27,0,0,0-.53-0.09l-0.94,2.75a2.26,2.26,0,0,1-2.89,1.4l-1.79-.63a2.25,2.25,0,0,1-1.38-2.86c2-5.79,7.47-21.5,7.53-21.7s0-.2,0-0.2H296.7a2.26,2.26,0,0,1-2.26-2.26v-2.51a2.26,2.26,0,0,1,2.26-2.26h5.17a0.9,0.9,0,0,0,.9-0.9v-7.25a2.26,2.26,0,0,1,2.26-2.26h2.51a2.26,2.26,0,0,1,2.26,2.26v7.25a0.9,0.9,0,0,0,.9.9H316a2.26,2.26,0,0,1,2.26,2.26v2.51a2.26,2.26,0,0,1-2.26,2.26h-5.93a0.27,0.27,0,0,0-.27.27v4.28a2.26,2.26,0,0,0,.42,1.31l6.87,9.68a2.26,2.26,0,0,1-.53,3.15l-1.54,1.1a2.26,2.26,0,0,1-3.14-.52l-1.58-2.19a0.27,0.27,0,0,0-.49.16v21.5a2.26,2.26,0,0,1-2.26,2.26H305A2.26,2.26,0,0,1,302.77,454.59Z" transform="translate(-136.18 -389.05)"/><path class="deae24de-a7fa-4d9b-9538-d7cc014d5e2e" d="M319.28,398.86h28.34a2.26,2.26,0,0,1,2.26,2.26v5.62a2.26,2.26,0,0,1-1.12,2l-18,10.49a0.27,0.27,0,0,0,.14.51h18.34a2.26,2.26,0,0,1,2.26,2.26v32.64a2.26,2.26,0,0,1-2.26,2.26h-8.3a2.26,2.26,0,0,1-2.26-2.26v-2.51a2.26,2.26,0,0,1,2.26-2.26h1.27a2.26,2.26,0,0,0,2.26-2.26V427a0.27,0.27,0,0,0-.27-0.27h-0.72a1.36,1.36,0,0,0-1.28.91l-9.48,27.15a2.26,2.26,0,0,1-2.88,1.39l-2.37-.84a2.26,2.26,0,0,1-1.38-2.88l8.89-25.36a0.27,0.27,0,0,0-.26-0.36h-2.74a1.36,1.36,0,0,0-1.29.93l-9,27.05a2.26,2.26,0,0,1-2.86,1.43l-2.29-.77a2.26,2.26,0,0,1-1.42-2.86l8.47-25.42a0.27,0.27,0,0,0-.26-0.36H320a2.26,2.26,0,0,1-2.26-2.26v-4.51a2.26,2.26,0,0,1,1.12-2l19.88-11.6a0.27,0.27,0,0,0-.14-0.51H319.28a2.26,2.26,0,0,1-2.26-2.26v-2.51A2.26,2.26,0,0,1,319.28,398.86Z" transform="translate(-136.18 -389.05)"/><path class="deae24de-a7fa-4d9b-9538-d7cc014d5e2e" d="M473.92,432.7H442.47a0.9,0.9,0,0,0-.9.9v1.84a0.9,0.9,0,0,0,.9.9h32.11a2.26,2.26,0,0,1,2.26,2.26v15.92a2.26,2.26,0,0,1-2.26,2.26H430.81a2.26,2.26,0,0,1-2.26-2.26v-2.44a2.26,2.26,0,0,1,2.26-2.26h36.74a2.26,2.26,0,0,0,2.26-2.26v-2a2.26,2.26,0,0,0-2.26-2.26H436.79a2.26,2.26,0,0,1-2.26-2.26v-6.31a0.27,0.27,0,0,0-.41-0.23l-4.79,2.79a2.26,2.26,0,0,1-3.1-.83l-1.26-2.2a2.26,2.26,0,0,1,.83-3.08l16.05-9.3a0.27,0.27,0,0,0-.14-0.51h-15.6a2.26,2.26,0,0,1-2.26-2.26v-2.51a2.26,2.26,0,0,1,2.26-2.26h17.47a0.9,0.9,0,0,0,.9-0.9v-3.14a0.9,0.9,0,0,0-.9-0.9H429.31a2.26,2.26,0,0,1-2.26-2.26v-2.51a2.26,2.26,0,0,1,2.26-2.26h14.28a0.9,0.9,0,0,0,.9-0.9v-0.81a2.26,2.26,0,0,1,2.26-2.26h2.51a2.26,2.26,0,0,1,2.26,2.26v0.81a0.9,0.9,0,0,0,.9.9H466.7a2.26,2.26,0,0,1,2.26,2.26v1.11a0.27,0.27,0,0,0,.41.23l6-3.51a2.26,2.26,0,0,1,3.09.82l1.24,2.14a2.26,2.26,0,0,1-.82,3.09l-9.21,5.32a0.27,0.27,0,0,0,.14.51H480a2.26,2.26,0,0,1,2.26,2.26v2.51a2.26,2.26,0,0,1-2.26,2.26H457.34a2.26,2.26,0,0,0-1.14.31l-6,3.48a0.27,0.27,0,0,0,.14.51h23.55a2.26,2.26,0,0,1,2.26,2.26v2.51A2.26,2.26,0,0,1,473.92,432.7ZM455.36,414l7.19-4.14a0.27,0.27,0,0,0-.14-0.51h-10a0.9,0.9,0,0,0-.9.9v3.14a0.9,0.9,0,0,0,.9.9h1.81A2.26,2.26,0,0,0,455.36,414Z" transform="translate(-136.18 -389.05)"/><path class="deae24de-a7fa-4d9b-9538-d7cc014d5e2e" d="M261.53,400.86v-0.45a2.26,2.26,0,0,0-2.26-2.26h-2.71a2.26,2.26,0,0,0-2.26,2.26v0.45a0.9,0.9,0,0,1-.9.9H231.26A2.26,2.26,0,0,0,229,404v5.42a2.26,2.26,0,0,0,2.26,2.26h1.81a2.26,2.26,0,0,0,2.26-2.26V409a0.9,0.9,0,0,1,.9-0.9h43.38a0.9,0.9,0,0,1,.9.9v0.45a2.26,2.26,0,0,0,2.26,2.26h1.81a2.26,2.26,0,0,0,2.26-2.26V404a2.26,2.26,0,0,0-2.26-2.26H262.44A0.9,0.9,0,0,1,261.53,400.86Z" transform="translate(-136.18 -389.05)"/><path class="deae24de-a7fa-4d9b-9538-d7cc014d5e2e" d="M276.45,428h6.33a2.26,2.26,0,0,0,2.26-2.26V423a2.26,2.26,0,0,0-2.26-2.26H233.07a2.26,2.26,0,0,0-2.26,2.26v2.71a2.26,2.26,0,0,0,2.26,2.26H264.7a2.26,2.26,0,0,1,2.26,2.26V432a2.26,2.26,0,0,1-2.26,2.26H239.84a0.9,0.9,0,0,1-.9-0.9v-2.26a2.26,2.26,0,0,0-2.26-2.26h-1.81a2.26,2.26,0,0,0-2.26,2.26v8.13a2.26,2.26,0,0,0,2.26,2.26h10a0.27,0.27,0,0,1,.13.51l-13.64,7.64a2.26,2.26,0,0,0-.86,3.08l1.23,2.17a2.26,2.26,0,0,0,3.07.86l24.85-14a2.26,2.26,0,0,1,1.11-.29h4a2.26,2.26,0,0,1,2.26,2.26v3.61a2.26,2.26,0,0,1-2.26,2.26h-8.13a2.26,2.26,0,0,0-2.26,2.26v2.71a2.26,2.26,0,0,0,2.26,2.26h15.36a2.26,2.26,0,0,0,2.26-2.26V443.79a2.26,2.26,0,0,1,2.26-2.26h6.33a2.26,2.26,0,0,0,2.26-2.26v-2.71a2.26,2.26,0,0,0-2.26-2.26h-6.33a2.26,2.26,0,0,1-2.26-2.26v-1.81A2.26,2.26,0,0,1,276.45,428Z" transform="translate(-136.18 -389.05)"/><rect class="deae24de-a7fa-4d9b-9538-d7cc014d5e2e" x="229.6" y="411.17" width="21.54" height="7.06" rx="2.5" ry="2.5" transform="translate(-252.4 -294.66) rotate(-17.97)"/><rect class="deae24de-a7fa-4d9b-9538-d7cc014d5e2e" x="263.94" y="411.17" width="21.54" height="7.06" rx="2.5" ry="2.5" transform="translate(271.9 504.88) rotate(-162.03)"/><path class="deae24de-a7fa-4d9b-9538-d7cc014d5e2e" d="M372.69,420.87V416.5a0.27,0.27,0,0,1,.27-0.27h5.15a1.81,1.81,0,0,0,1.81-1.81v-3.61h0a1.81,1.81,0,0,0-1.81-1.81H373.6a0.9,0.9,0,0,1-.9-0.9V400a1.81,1.81,0,0,0-1.81-1.81h-2.71a1.81,1.81,0,0,0-1.81,1.81v8.13a0.9,0.9,0,0,1-.9.9h-4.52a1.81,1.81,0,0,0-1.81,1.81v3.61a1.81,1.81,0,0,0,1.81,1.81h4.71a0.27,0.27,0,0,1,.26.35L359.64,438a2.26,2.26,0,0,0,1.59,2.82l2.08,0.56a2.26,2.26,0,0,0,2.72-1.45l0.34-1v15.69a2.26,2.26,0,0,0,2.26,2.26h1.81a2.26,2.26,0,0,0,2.26-2.26V434.82a0.27,0.27,0,0,1,.5-0.15l0.22,0.33a2.26,2.26,0,0,0,3.06.66l1.62-1a2.26,2.26,0,0,0,.74-3.1L373,422.05A2.26,2.26,0,0,1,372.69,420.87Z" transform="translate(-136.18 -389.05)"/><path class="deae24de-a7fa-4d9b-9538-d7cc014d5e2e" d="M414.72,437.92h-12.2a0.9,0.9,0,0,1-.9-0.9h0a0.9,0.9,0,0,1,.9-0.9h1.36a11.3,11.3,0,0,0,11.3-11.3h0a11.3,11.3,0,0,0-11.3-11.3H392.13a11.3,11.3,0,0,0-11.3,11.3h0a11.3,11.3,0,0,0,11.3,11.3h1.36a0.9,0.9,0,0,1,.9.9h0a0.9,0.9,0,0,1-.9.9h-12.2a2.26,2.26,0,0,0-2.26,2.26v2.71a2.26,2.26,0,0,0,2.26,2.26h6.62a0.27,0.27,0,0,1,.14.5l-6.63,4.09a2.26,2.26,0,0,0-.73,3.11l1.26,2a2.26,2.26,0,0,0,3.11.73l12-7.45a2.26,2.26,0,0,1,2.39,0l11.87,7.42a2.26,2.26,0,0,0,3.11-.71l1.28-2a2.26,2.26,0,0,0-.72-3.13l-6.61-4.08a0.27,0.27,0,0,1,.14-0.5h6.23a2.26,2.26,0,0,0,2.26-2.26v-2.71A2.26,2.26,0,0,0,414.72,437.92Zm-17.79-9h-6.5a2.37,2.37,0,0,1-2.37-2.37v-3.39a2.37,2.37,0,0,1,2.37-2.37h15.14a2.37,2.37,0,0,1,2.37,2.37v3.39a2.37,2.37,0,0,1-2.37,2.37h-8.64Z" transform="translate(-136.18 -389.05)"/><path class="deae24de-a7fa-4d9b-9538-d7cc014d5e2e" d="M382.5,401.88h3a0.5,0.5,0,0,0,.5-0.5h0a2.5,2.5,0,0,1,2.5-2.5h2a2.5,2.5,0,0,1,2.5,2.5h0a0.5,0.5,0,0,0,.5.5h10a0.5,0.5,0,0,0,.5-0.5h0a2.5,2.5,0,0,1,2.5-2.5h2a2.5,2.5,0,0,1,2.5,2.5h0a0.5,0.5,0,0,0,.5.5h3a2.5,2.5,0,0,1,2.5,2.5v2a2.5,2.5,0,0,1-2.5,2.5h-3a0.5,0.5,0,0,0-.5.5h0a2.5,2.5,0,0,1-2.5,2.5h-2a2.5,2.5,0,0,1-2.5-2.5h0a0.5,0.5,0,0,0-.5-0.5h-10a0.5,0.5,0,0,0-.5.5h0a2.5,2.5,0,0,1-2.5,2.5h-2a2.5,2.5,0,0,1-2.5-2.5h0a0.5,0.5,0,0,0-.5-0.5h-3a2.5,2.5,0,0,1-2.5-2.5v-2A2.5,2.5,0,0,1,382.5,401.88Z" transform="translate(-136.18 -389.05)"/></svg>