<svg id="a1fd6e9d-88fd-4e22-8961-b75862bd3b57" data-name="图层 1" xmlns="http://www.w3.org/2000/svg" viewBox="0 0 76.95 76.95"><defs><style>.d0445178-1008-48e0-b244-5d314b7d67db{fill:#fff;}</style></defs><title>logo1</title><path class="d0445178-1008-48e0-b244-5d314b7d67db" d="M174.65,466a38.13,38.13,0,0,1-16.72-3.82,4,4,0,1,1,3.48-7.2,30.19,30.19,0,0,0,13.24,3,30.47,30.47,0,1,0-30.47-30.47,30.82,30.82,0,0,0,.49,5.5,30.33,30.33,0,0,0,1.38,5.06,4,4,0,0,1-7.5,2.77,38.38,38.38,0,0,1-1.75-6.4A38.48,38.48,0,1,1,174.65,466Z" transform="translate(-136.18 -389.05)"/><path class="d0445178-1008-48e0-b244-5d314b7d67db" d="M174.39,451.25q-0.9,0-1.81-.07a23.36,23.36,0,1,1,3.55-46.59,4,4,0,0,1-.61,8A15.37,15.37,0,1,0,189.67,429a4,4,0,1,1,8,.61A23.37,23.37,0,0,1,174.39,451.25Z" transform="translate(-136.18 -389.05)"/><path class="d0445178-1008-48e0-b244-5d314b7d67db" d="M146.59,459.07a4,4,0,0,1-3.78-5.32,23.54,23.54,0,0,1,14.49-14.42,4,4,0,1,1,2.6,7.57,15.48,15.48,0,0,0-9.53,9.48A4,4,0,0,1,146.59,459.07Z" transform="translate(-136.18 -389.05)"/><path class="d0445178-1008-48e0-b244-5d314b7d67db" d="M179.13,426.28a3.44,3.44,0,0,1-3.21-2.36c-0.24-.51-1.35-4.64-1.35-4.64s-1,4.13-1.26,4.64a3.36,3.36,0,0,1-3.16,2.36c-2.48.24-8.68,1-8.68,1s7.7,0.81,9,1.26a4.32,4.32,0,0,1,3,2.66c0.39,1.44,1.08,4.76,1.08,4.76s0.78-3.32,1.17-4.76,1.83-2.21,3.12-2.66,9-1.26,9-1.26S181.62,426.52,179.13,426.28Z" transform="translate(-136.18 -389.05)"/></svg>